<svg width="320" height="320" viewBox="0 0 320 320" fill="none" xmlns="http://www.w3.org/2000/svg">
<g clip-path="url(#clip0_350_2317)">
<path d="M255.143 96.4137C240.333 90.6413 227.82 80.1081 220.168 66.1756C207.299 42.7463 182.399 26.8644 153.779 26.8644C124.073 26.8644 98.3757 43.975 85.9813 68.8763C78.39 84.1269 65.4725 96.1012 49.675 102.477C26.3319 111.898 6.73565 133.429 0.516902 167.091C-0.165598 170.784 -0.175598 174.582 0.506902 178.276C10.1619 230.508 52.0063 253.548 90.0907 247.438C111.419 244.017 133.011 251.131 148.82 265.852C180.966 295.784 232.498 305.169 282.522 273.083C288.383 269.324 296.245 261.437 300.001 255.574C343.104 188.28 311.175 118.253 255.143 96.4137Z" fill="#3a98d3"/>
<path opacity="0.1" d="M285.001 62.2119V221.118C285.001 226.293 280.801 230.493 275.626 230.493H44.376C39.201 230.493 35.001 226.293 35.001 221.118V62.2119C35.001 57.0369 39.201 52.8369 44.376 52.8369H275.626C280.801 52.8369 285.001 57.0363 285.001 62.2119Z" fill="#0b346b"/>
<path d="M195.445 289.059H124.557L138.733 232.869H181.269L195.445 289.059Z" fill="white"/>
<path d="M285.001 75.3388V234.245C285.001 239.42 280.801 243.62 275.626 243.62H44.376C39.201 243.62 35.001 239.42 35.001 234.245V75.3388C35.001 70.1638 39.201 65.9638 44.376 65.9638H275.626C280.801 65.9638 285.001 70.1638 285.001 75.3388Z" fill="white"/>
<path d="M81.7939 96.0706H238.206V212.124H81.7939V96.0706Z" fill="white"/>
<path d="M285.001 96.0706V75.3388C285.001 70.1613 280.803 65.9638 275.626 65.9638H44.376C39.1985 65.9638 35.001 70.1613 35.001 75.3388V96.0706H285.001Z" fill="white"/>
<path d="M35.001 212.124V234.243C35.001 239.421 39.1985 243.618 44.376 243.618H275.626C280.803 243.618 285.001 239.421 285.001 234.243V212.124H35.001Z" fill="white"/>
<path d="M58.8018 77.8469C57.0755 77.8469 55.6768 79.2456 55.6768 80.9719V81.0631C55.6768 82.7894 57.0755 84.1881 58.8018 84.1881C60.528 84.1881 61.9268 82.7894 61.9268 81.0631V80.9719C61.9268 79.2456 60.528 77.8469 58.8018 77.8469Z" fill="#0b346b"/>
<path d="M70.8799 77.8469C69.1536 77.8469 67.7549 79.2456 67.7549 80.9719V81.0631C67.7549 82.7894 69.1536 84.1881 70.8799 84.1881C72.6061 84.1881 74.0049 82.7894 74.0049 81.0631V80.9719C74.0049 79.2456 72.6061 77.8469 70.8799 77.8469Z" fill="#0b346b"/>
<path d="M82.958 77.8469C81.2318 77.8469 79.833 79.2456 79.833 80.9719V81.0631C79.833 82.7894 81.2318 84.1881 82.958 84.1881C84.6843 84.1881 86.083 82.7894 86.083 81.0631V80.9719C86.083 79.2456 84.6843 77.8469 82.958 77.8469Z" fill="#0b346b"/>
<path d="M275.626 62.8381H44.376C37.4835 62.8381 31.876 68.4456 31.876 75.3381V96.0706C31.876 97.7969 33.2747 99.1956 35.001 99.1956H281.876V194.912C281.876 196.638 283.275 198.037 285.001 198.037C286.727 198.037 288.126 196.638 288.126 194.912V75.3381C288.126 68.4456 282.518 62.8381 275.626 62.8381ZM281.876 92.9456H38.126V75.3381C38.126 71.8919 40.9297 69.0881 44.376 69.0881H275.626C279.072 69.0881 281.876 71.8919 281.876 75.3381V92.9456Z" fill="#0b346b"/>
<path d="M285.001 208.999H38.126V113.283C38.126 111.557 36.7272 110.158 35.001 110.158C33.2747 110.158 31.876 111.557 31.876 113.283V234.243C31.876 241.136 37.4835 246.743 44.376 246.743H132.01L122.123 285.931H112.543C110.817 285.931 109.418 287.33 109.418 289.056C109.418 290.783 110.817 292.181 112.543 292.181H207.46C209.186 292.181 210.585 290.783 210.585 289.056C210.585 287.33 209.186 285.931 207.46 285.931H197.878L187.992 246.743H275.626C282.518 246.743 288.126 241.136 288.126 234.243V212.124C288.126 210.399 286.727 208.999 285.001 208.999ZM191.433 285.931H128.568L138.455 246.743H181.547L191.433 285.931ZM281.876 234.243C281.876 237.689 279.072 240.493 275.626 240.493H44.376C40.9297 240.493 38.126 237.689 38.126 234.243V215.249H281.876V234.243Z" fill="#0b346b"/>
<path d="M147.457 181.33H203.761C205.532 181.33 206.967 179.895 206.967 178.124C206.967 176.354 205.532 174.919 203.761 174.919H147.457C145.686 174.919 144.251 176.354 144.251 178.124C144.251 179.895 145.686 181.33 147.457 181.33Z" fill="#0b346b"/>
<path d="M116.241 181.33H131.62C133.39 181.33 134.825 179.895 134.825 178.124C134.825 176.354 133.39 174.919 131.62 174.919H116.241C114.47 174.919 113.035 176.354 113.035 178.124C113.036 179.895 114.471 181.33 116.241 181.33Z" fill="#0b346b"/>
<path d="M116.241 194.045H203.76C205.531 194.045 206.966 192.61 206.966 190.839C206.966 189.069 205.531 187.634 203.76 187.634H116.241C114.47 187.634 113.035 189.069 113.035 190.839C113.036 192.61 114.471 194.045 116.241 194.045Z" fill="#0b346b"/>
<path d="M214.462 47.8088C213.662 47.8088 212.862 47.5038 212.252 46.8938L205.38 40.0225C204.794 39.4363 204.465 38.6413 204.465 37.8125C204.465 36.9838 204.794 36.1888 205.38 35.6031L212.252 28.7313C213.472 27.5106 215.452 27.5106 216.671 28.7313L223.543 35.6031C224.129 36.1894 224.459 36.9838 224.459 37.8125C224.459 38.6413 224.129 39.4363 223.543 40.0225L216.671 46.8938C216.06 47.5038 215.261 47.8088 214.462 47.8088ZM212.009 37.8125L214.462 40.265L216.914 37.8125L214.462 35.36L212.009 37.8125Z" fill="#001c6b"/>
<path d="M82.9578 287.82C82.1584 287.82 81.3578 287.515 80.7484 286.904L73.8766 280.033C73.2903 279.446 72.9609 278.652 72.9609 277.823C72.9609 276.994 73.2903 276.199 73.8766 275.613L80.7484 268.742C81.9691 267.522 83.9466 267.522 85.1672 268.742L92.0391 275.613C92.6253 276.199 92.9547 276.994 92.9547 277.823C92.9547 278.652 92.6259 279.447 92.0391 280.033L85.1672 286.904C84.5578 287.514 83.7578 287.82 82.9578 287.82ZM80.5059 277.823L82.9584 280.276L85.4109 277.823L82.9584 275.371L80.5059 277.823Z" fill="#001c6b"/>
<path d="M227.003 274.711C226.203 274.711 225.403 274.406 224.793 273.796L217.921 266.924C217.335 266.338 217.006 265.543 217.006 264.714C217.006 263.886 217.335 263.091 217.921 262.504L224.793 255.633C226.014 254.414 227.991 254.414 229.212 255.633L236.084 262.504C236.67 263.091 237 263.886 237 264.714C237 265.543 236.671 266.338 236.084 266.924L229.212 273.796C228.603 274.406 227.802 274.711 227.003 274.711ZM224.55 264.714L227.003 267.167L229.455 264.714L227.003 262.262L224.55 264.714Z" fill="#001c6b"/>
<path d="M258.141 291.57C257.342 291.57 256.541 291.265 255.932 290.654L249.06 283.783C248.474 283.196 248.145 282.402 248.145 281.573C248.145 280.744 248.474 279.949 249.06 279.363L255.932 272.492C257.153 271.272 259.13 271.272 260.351 272.492L267.223 279.363C267.809 279.949 268.138 280.744 268.138 281.573C268.138 282.402 267.81 283.197 267.223 283.783L260.351 290.654C259.741 291.264 258.941 291.57 258.141 291.57ZM255.69 281.573L258.142 284.026L260.595 281.573L258.142 279.121L255.69 281.573Z" fill="#001c6b"/>
<path d="M101.058 147.33V140.064L119.275 111.364H125.54V121.42H121.832L110.348 139.595V139.936H136.236V147.33H101.058ZM122.003 155V145.114L122.173 141.896V111.364H130.824V155H122.003ZM159.492 155.959C155.827 155.945 152.674 155.043 150.032 153.253C147.404 151.463 145.38 148.871 143.959 145.476C142.553 142.081 141.857 137.997 141.871 133.224C141.871 128.466 142.574 124.411 143.981 121.058C145.401 117.706 147.425 115.156 150.053 113.409C152.695 111.648 155.841 110.767 159.492 110.767C163.143 110.767 166.282 111.648 168.91 113.409C171.552 115.17 173.583 117.727 175.003 121.08C176.424 124.418 177.127 128.466 177.113 133.224C177.113 138.011 176.403 142.102 174.982 145.497C173.576 148.892 171.559 151.484 168.931 153.274C166.303 155.064 163.157 155.959 159.492 155.959ZM159.492 148.31C161.992 148.31 163.988 147.053 165.479 144.538C166.971 142.024 167.709 138.253 167.695 133.224C167.695 129.915 167.354 127.159 166.672 124.957C166.005 122.756 165.053 121.101 163.817 119.993C162.596 118.885 161.154 118.331 159.492 118.331C157.006 118.331 155.018 119.574 153.526 122.06C152.035 124.545 151.282 128.267 151.268 133.224C151.268 136.577 151.601 139.375 152.269 141.619C152.951 143.849 153.91 145.526 155.145 146.648C156.381 147.756 157.83 148.31 159.492 148.31ZM183.031 147.33V140.064L201.248 111.364H207.512V121.42H203.805L192.32 139.595V139.936H218.208V147.33H183.031ZM203.975 155V145.114L204.146 141.896V111.364H212.796V155H203.975Z" fill="#001c6b"/>
</g>
<defs>
<clipPath id="clip0_350_2317">
<rect width="320" height="320" fill="white"/>
</clipPath>
</defs>
</svg>
